<svg width="400" height="400" viewBox="0 0 400 400" fill="none" xmlns="http://www.w3.org/2000/svg">
  <rect width="400" height="400" fill="#E5E5E5"/>
  <path d="M200 140C177.909 140 160 157.909 160 180C160 202.091 177.909 220 200 220C222.091 220 240 202.091 240 180C240 157.909 222.091 140 200 140ZM200 210C183.431 210 170 196.569 170 180C170 163.431 183.431 150 200 150C216.569 150 230 163.431 230 180C230 196.569 216.569 210 200 210Z" fill="#9CA3AF"/>
  <path d="M280 260H120C115.582 260 112 256.418 112 252V128C112 123.582 115.582 120 120 120H280C284.418 120 288 123.582 288 128V252C288 256.418 284.418 260 280 260ZM122 250H278V130H122V250Z" fill="#9CA3AF"/>
  <path d="M122 250L165 195L190 225L235 165L278 250H122Z" fill="#9CA3AF"/>
</svg>
